<?xml version="1.0" encoding="UTF-8" standalone="no"?>
<!-- Created with Inkscape (http://www.inkscape.org/) -->

<svg
   width="640"
   height="480"
   viewBox="0 0 640 480"
   version="1.1"
   id="svg5"
   sodipodi:docname="car.svg"
   inkscape:version="1.1.2 (0a00cf5339, 2022-02-04)"
   xmlns:inkscape="http://www.inkscape.org/namespaces/inkscape"
   xmlns:sodipodi="http://sodipodi.sourceforge.net/DTD/sodipodi-0.dtd"
   xmlns="http://www.w3.org/2000/svg"
   xmlns:svg="http://www.w3.org/2000/svg">
  <sodipodi:namedview
     id="namedview7"
     pagecolor="#ffffff"
     bordercolor="#666666"
     borderopacity="1.0"
     inkscape:pageshadow="2"
     inkscape:pageopacity="0.0"
     inkscape:pagecheckerboard="0"
     inkscape:document-units="px"
     showgrid="false"
     units="px"
     width="640px"
     inkscape:zoom="0.64052329"
     inkscape:cx="397.33138"
     inkscape:cy="516.76497"
     inkscape:window-width="1844"
     inkscape:window-height="1011"
     inkscape:window-x="0"
     inkscape:window-y="32"
     inkscape:window-maximized="1"
     inkscape:current-layer="layer1" />
  <defs
     id="defs2" />
  <g
     inkscape:label="Layer 1"
     inkscape:groupmode="layer"
     id="layer1">
    <path
       d="m 164.206,234.699 c -31.899,0 -57.724,25.843 -57.724,57.743 0,31.899 25.843,57.742 57.724,57.742 31.864,0 57.725,-25.843 57.725,-57.742 0,-31.9 -25.861,-57.743 -57.725,-57.743 z m 0,75.188 c -9.587,0 -17.445,-7.822 -17.445,-17.427 0,-9.606 7.858,-17.428 17.445,-17.428 9.57,0 17.41,7.822 17.41,17.428 0,9.605 -7.822,17.427 -17.41,17.427 z"
       id="path56"
       style="fill:#000000" />
    <path
       d="m 584.536,245.134 -9.444,-76.811 c -1.856,-14.742 -14.742,-25.555 -29.61,-24.744 l -20.689,1.153 -64.231,-57.8686 c -6.2,-5.5688 -14.183,-8.6326 -22.51,-8.6326 l -130.498,-0.018 c -29.286,0 -57.688,10.0023 -80.522,28.3492 l -72.81,58.499 -97.9138,24.474 c -12.5795,3.136 -21.4103,14.454 -21.4103,27.412 v 28.223 c -4.1451,-0.018 -7.5152,3.334 -7.5152,7.479 v 37.323 c 0,5.317 4.3073,9.624 9.6238,9.624 h 55.2738 c -0.2343,-2.397 -0.7209,-4.685 -0.7209,-7.136 0,-40.136 32.5116,-72.612 72.6286,-72.612 40.118,0 72.612,32.476 72.612,72.612 0,2.469 -0.505,4.757 -0.739,7.136 h 153.061 c -0.216,-2.397 -0.703,-4.685 -0.703,-7.136 0,-40.136 32.512,-72.612 72.611,-72.612 40.136,0 72.593,32.476 72.593,72.612 0,2.469 -0.468,4.757 -0.72,7.136 h 51.561 c 5.316,0 9.606,-4.307 9.606,-9.624 v -35.197 c 0.09,-5.298 -4.218,-9.641 -9.534,-9.641 z m -193.684,-94.382 -182.059,9.209 34.855,-28.024 c 18.941,-15.229 42.478,-23.519 66.79,-23.519 h 80.414 z m 30.241,-1.532 v -40.784 h 11.841 c 4.109,0 8.056,1.514 11.102,4.271 l 37.161,33.449 z"
       id="path58"
       style="fill:#000000" />
    <path
       d="m 461.067,234.699 c -31.9,0 -57.725,25.843 -57.725,57.743 0,31.899 25.843,57.742 57.725,57.742 31.881,0 57.724,-25.843 57.724,-57.742 0,-31.9 -25.843,-57.743 -57.724,-57.743 z m 0,75.188 c -9.606,0 -17.428,-7.822 -17.428,-17.427 0,-9.606 7.822,-17.428 17.428,-17.428 9.569,0 17.427,7.822 17.427,17.428 0,9.605 -7.84,17.427 -17.427,17.427 z"
       id="path60"
       style="fill:#000000" />
  </g>
</svg>
