<?xml version="1.0" encoding="UTF-8" standalone="no"?>
<!-- Created with Inkscape (http://www.inkscape.org/) -->

<svg
   width="640"
   height="480"
   viewBox="0 0 640 480"
   version="1.1"
   id="svg5"
   inkscape:version="1.1.2 (0a00cf5339, 2022-02-04)"
   sodipodi:docname="hello.svg"
   xmlns:inkscape="http://www.inkscape.org/namespaces/inkscape"
   xmlns:sodipodi="http://sodipodi.sourceforge.net/DTD/sodipodi-0.dtd"
   xmlns="http://www.w3.org/2000/svg"
   xmlns:svg="http://www.w3.org/2000/svg">
  <sodipodi:namedview
     id="namedview7"
     pagecolor="#ffffff"
     bordercolor="#666666"
     borderopacity="1.0"
     inkscape:pageshadow="2"
     inkscape:pageopacity="0.0"
     inkscape:pagecheckerboard="0"
     inkscape:document-units="px"
     showgrid="false"
     inkscape:zoom="2.005224"
     inkscape:cx="280.51729"
     inkscape:cy="300.71453"
     inkscape:window-width="1920"
     inkscape:window-height="1043"
     inkscape:window-x="1920"
     inkscape:window-y="0"
     inkscape:window-maximized="1"
     inkscape:current-layer="layer1"
     units="px"
     width="640px" />
  <defs
     id="defs2" />
  <g
     inkscape:label="Layer 1"
     inkscape:groupmode="layer"
     id="layer1">
    <text
       xml:space="preserve"
       style="font-style:normal;font-weight:normal;font-size:25.4px;line-height:1.25;font-family:sans-serif;fill:#000000;fill-opacity:1;stroke:none;stroke-width:0.264583"
       x="238.91994"
       y="234.19914"
       id="text759"><tspan
         sodipodi:role="line"
         id="tspan757"
         style="font-size:25.4px;stroke-width:0.264583"
         x="238.91994"
         y="234.19914">Hello World!</tspan></text>
    <path
       d="m 25.030057,51.481105 h 9.893987 V 81.456961 H 70.875451 V 51.481105 h 9.893983 V 124.60843 H 70.875451 V 89.783588 H 34.924044 v 34.824842 h -9.893987 z"
       id="path5050"
       style="font-size:25.4px;line-height:1.25;stroke-width:1.04491" />
    <path
       d="m 146.99056,94.926477 v 4.408207 h -41.43718 q 0.58776,9.306246 5.58373,14.204236 5.04495,4.84906 14.00832,4.84906 5.19189,0 10.04092,-1.27348 4.89801,-1.27351 9.69806,-3.82047 v 8.52255 q -4.84903,2.05717 -9.94296,3.13472 -5.09393,1.07756 -10.33481,1.07756 -13.12667,0 -20.81655,-7.64088 -7.640898,-7.64091 -7.640898,-20.669611 0,-13.469555 7.249058,-21.355326 7.29804,-7.93478 19.64103,-7.93478 11.06951,0 17.4859,7.151089 6.46538,7.102118 6.46538,19.347125 z m -9.01234,-2.644901 q -0.098,-7.396022 -4.16332,-11.80423 -4.01637,-4.408207 -10.67766,-4.408207 -7.54294,0 -12.09809,4.261295 -4.50617,4.261255 -5.19189,12.000113 z"
       id="path5052"
       style="font-size:25.4px;line-height:1.25;stroke-width:1.04491" />
    <path
       d="m 161.78256,48.395388 h 9.01234 v 76.213042 h -9.01234 z"
       id="path5054"
       style="font-size:25.4px;line-height:1.25;stroke-width:1.04491" />
    <path
       d="m 189.65225,48.395388 h 9.01234 v 76.213042 h -9.01234 z"
       id="path5056"
       style="font-size:25.4px;line-height:1.25;stroke-width:1.04491" />
    <path
       d="m 238.77931,76.069139 q -7.24906,0 -11.46135,5.681687 -4.21229,5.632716 -4.21229,15.477716 0,9.844998 4.16331,15.526728 4.2123,5.63271 11.51033,5.63271 7.20008,0 11.41237,-5.68172 4.21229,-5.68169 4.21229,-15.477718 0,-9.747019 -4.21229,-15.428706 -4.21229,-5.730697 -11.41237,-5.730697 z m 0,-7.640876 q 11.75523,0 18.46551,7.640876 6.71027,7.640916 6.71027,21.159403 0,13.469558 -6.71027,21.159438 -6.71028,7.64088 -18.46551,7.64088 -11.80421,0 -18.51448,-7.64088 -6.6613,-7.68988 -6.6613,-21.159438 0,-13.518487 6.6613,-21.159403 6.71027,-7.640876 18.51448,-7.640876 z"
       id="path5058"
       style="font-size:25.4px;line-height:1.25;stroke-width:1.04491" />
    <path
       d="m 304.65755,51.481105 h 9.99196 l 15.37977,61.812925 15.33076,-61.812925 h 11.11848 l 15.37978,61.812925 15.33076,-61.812925 h 10.04092 L 378.86243,124.60843 H 366.4215 l -15.42874,-63.478209 -15.5757,63.478209 h -12.44093 z"
       id="path5060"
       style="font-size:25.4px;line-height:1.25;stroke-width:1.04491" />
    <path
       d="m 425.34459,76.069139 q -7.24907,0 -11.46135,5.681687 -4.21229,5.632716 -4.21229,15.477716 0,9.844998 4.16332,15.526728 4.21228,5.63271 11.51032,5.63271 7.20006,0 11.41235,-5.68172 4.21228,-5.68169 4.21228,-15.477718 0,-9.747019 -4.21228,-15.428706 -4.21229,-5.730697 -11.41235,-5.730697 z m 0,-7.640876 q 11.75522,0 18.46549,7.640876 6.71028,7.640916 6.71028,21.159403 0,13.469558 -6.71028,21.159438 -6.71027,7.64088 -18.46549,7.64088 -11.80423,0 -18.5145,-7.64088 -6.6613,-7.68988 -6.6613,-21.159438 0,-13.518487 6.6613,-21.159403 6.71027,-7.640876 18.5145,-7.640876 z"
       id="path5062"
       style="font-size:25.4px;line-height:1.25;stroke-width:1.04491" />
    <path
       d="m 497.24741,78.175281 q -1.51838,-0.881633 -3.33065,-1.273479 -1.76327,-0.440817 -3.91842,-0.440817 -7.64088,0 -11.75522,4.995976 -4.06533,4.947005 -4.06533,14.253207 v 28.898262 h -9.06135 V 69.750713 h 9.06135 v 8.52255 q 2.84082,-4.995976 7.39598,-7.396023 4.55516,-2.448977 11.06951,-2.448977 0.9306,0 2.05717,0.146912 1.12653,0.09794 2.49799,0.342796 z"
       id="path5064"
       style="font-size:25.4px;line-height:1.25;stroke-width:1.04491" />
    <path
       d="m 506.70056,48.395388 h 9.01234 v 76.213042 h -9.01234 z"
       id="path5066"
       style="font-size:25.4px;line-height:1.25;stroke-width:1.04491" />
    <path
       d="M 570.66863,78.07734 V 48.395388 h 9.01234 v 76.213042 h -9.01234 v -8.22865 q -2.84086,4.898 -7.20009,7.29804 -4.31027,2.35104 -10.3838,2.35104 -9.94294,0 -16.2124,-7.93478 -6.22048,-7.93478 -6.22048,-20.865538 0,-12.930718 6.22048,-20.865499 6.26946,-7.93478 16.2124,-7.93478 6.07353,0 10.3838,2.400006 4.35923,2.351036 7.20009,7.249071 z M 539.9581,97.228542 q 0,9.942978 4.06533,15.624668 4.11434,5.63272 11.26543,5.63272 7.15109,0 11.26543,-5.63272 4.11434,-5.68169 4.11434,-15.624668 0,-9.942942 -4.11434,-15.575658 -4.11434,-5.681687 -11.26543,-5.681687 -7.15109,0 -11.26543,5.681687 -4.06533,5.632716 -4.06533,15.575658 z"
       id="path5068"
       style="font-size:25.4px;line-height:1.25;stroke-width:1.04491" />
    <path
       d="m 603.92613,112.1675 h 9.94294 v 12.44093 h -9.94294 z m 0,-60.686395 h 9.94294 v 32.081998 l -0.97957,17.485917 h -7.93478 l -1.02859,-17.485917 z"
       id="path5070"
       style="font-size:25.4px;line-height:1.25;stroke-width:1.04491" />
    <path
       style="fill:#ff0000;stroke:#000000;stroke-width:1.6316px;stroke-linecap:butt;stroke-linejoin:miter;stroke-opacity:0.00591213"
       d="m 314.23167,307.48772 c 61.64769,-61.6477 104.03042,14.86152 0,118.89196 -97.97577,-97.97576 -70.4544,-176.13624 0,-118.89196 z"
       id="path254"/>
  </g>
</svg>
