<?xml version="1.0" encoding="UTF-8" standalone="no"?>
<!-- Created with Inkscape (http://www.inkscape.org/) -->

<svg
   width="640"
   height="480"
   viewBox="0 0 640 480"
   version="1.1"
   id="svg5"
   inkscape:version="1.1.2 (0a00cf5339, 2022-02-04)"
   sodipodi:docname="leaf.svg"
   xmlns:inkscape="http://www.inkscape.org/namespaces/inkscape"
   xmlns:sodipodi="http://sodipodi.sourceforge.net/DTD/sodipodi-0.dtd"
   xmlns="http://www.w3.org/2000/svg"
   xmlns:svg="http://www.w3.org/2000/svg">
  <sodipodi:namedview
     id="namedview7"
     pagecolor="#ffffff"
     bordercolor="#666666"
     borderopacity="1.0"
     inkscape:pageshadow="2"
     inkscape:pageopacity="0.0"
     inkscape:pagecheckerboard="0"
     inkscape:document-units="px"
     showgrid="false"
     units="px"
     width="640px"
     inkscape:zoom="0.97717652"
     inkscape:cx="172.94726"
     inkscape:cy="305.98361"
     inkscape:window-width="1844"
     inkscape:window-height="1011"
     inkscape:window-x="0"
     inkscape:window-y="32"
     inkscape:window-maximized="1"
     inkscape:current-layer="layer1" />
  <defs
     id="defs2" />
  <g
     inkscape:label="Layer 1"
     inkscape:groupmode="layer"
     id="layer1">
    <path
       d="m 506.82084,233.98785 c -4.8718,24.76372 -24.3807,61.14803 -49.6646,76.47374 -7.2948,4.42088 -46.06001,19.04442 -54.40602,20.70412 -43.31375,8.61222 -54.46851,7.31651 -91.42869,6.40518 -43.03397,-1.06074 -76.64759,-8.15588 -112.83632,-22.77942 C 150.16926,295.26627 109.85437,274.62734 75.048267,238.05152 58.993215,221.1802 44.28683,205.3764 38.043269,191.13588 30.950845,174.95722 29.9132,173.45915 22.217742,155.96305 16.441395,142.83081 12.035456,125.76255 6.8580702,101.89252 6.1219367,98.499783 39.675797,119.97127 56.147819,126.7676 c 13.205596,5.45038 52.288611,15.37053 74.588601,18.27976 16.03876,2.09296 47.39644,0.0842 59.29274,-2.91874 16.35523,-4.13158 40.175,-11.89494 53.0981,-18.42235 19.29025,-9.7436 23.19773,-8.30392 43.98061,-13.55329 24.96882,-6.30604 61.22273,-6.12133 85.45813,0 21.0097,5.30641 29.09903,5.58212 54.55949,16.89984 15.28905,6.7977 28.83962,14.68464 47.5866,35.77041 17.09134,19.22505 26.35958,39.99164 32.97255,58.0052 44.47229,15.82825 93.89922,45.97715 116.34994,55.20735 -2.01417,8.46147 -5.16107,27.53169 -3.86673,39.19575 -4.80796,-27.21796 -68.5732,-74.1757 -113.34701,-81.24368 z"
       id="path1308"
       style="fill:#000000;fill-opacity:1;fill-rule:evenodd;stroke:#000000;stroke-width:1.18917;stroke-linecap:butt;stroke-linejoin:miter;stroke-opacity:1" />
    <path
       d="m 490.68157,225.14609 c -16.20038,-5.21678 -42.57218,-16.68255 -68.09648,-23.54135 -42.69714,-11.4712 -73.55773,-11.76864 -87.03225,-10.44713 -52.04549,5.10675 -89.15644,20.91326 -100.84087,22.86226 -32.13592,5.36209 -73.58355,4.83784 -89.96185,-0.68045 C 105.57746,200.13926 102.61935,196.34993 79.269503,181.85135 55.199811,166.9032 39.779024,148.88015 18.86303,122.11176 c 17.596594,14.77837 36.435927,38.33872 51.567423,47.79438 23.936579,14.95902 41.711097,26.09338 62.913667,33.6503 16.81021,5.9923 41.29685,7.83534 61.70217,6.66867 30.46671,-1.74391 53.95374,-7.12637 67.76644,-11.40193 23.92301,-7.40345 29.82567,-9.60506 53.24614,-13.55329 29.45351,-4.96551 24.22044,-3.56116 49.17159,-2.34014 28.73096,1.40707 38.5411,4.49693 65.46297,11.57442 19.92044,5.23849 38.57506,11.54997 62.36903,20.79239 -0.56906,8.13551 -1.50757,2.31977 -2.38089,9.84953 z"
       id="path2185"
       style="fill:#ffffff;fill-opacity:1;fill-rule:evenodd;stroke:#000000;stroke-width:1.18917;stroke-linecap:butt;stroke-linejoin:miter;stroke-opacity:1" />
    <path
       d="m 469.70446,224.58244 c 8.87708,2.47189 3.00023,0.83665 6.07651,1.89059 0.22682,12.32278 -3.05863,14.90739 -8.52531,27.45291 -7.83671,17.98368 -21.71323,30.71663 -38.39985,41.17055 -17.02208,10.66444 -35.09947,21.18763 -65.05687,36.80128 23.00079,-15.1247 50.60447,-30.34042 71.68616,-47.17642 13.96345,-11.14931 18.5446,-18.85156 21.84227,-24.86015 9.16092,-16.6839 9.9772,-23.36344 12.37709,-35.27876 z"
       id="path3933"
       style="fill:#ffffff;fill-opacity:1;fill-rule:evenodd;stroke:#000000;stroke-width:1.18917;stroke-linecap:butt;stroke-linejoin:miter;stroke-opacity:1" />
    <path
       d="m 410.136,205.16452 c 8.75755,2.87256 3.06406,-1.37854 6.09008,-0.18742 -0.32052,12.32142 -3.82056,17.10629 -9.84002,29.39104 -8.6258,17.61018 -30.78589,34.75586 -47.91934,44.44376 -17.47844,9.88349 -40.09758,24.17019 -71.17141,38.87114 25.92225,-16.36608 59.17459,-33.9912 80.98427,-49.85475 14.44425,-10.50689 24.36305,-22.12885 27.9242,-27.9799 9.89299,-16.25335 11.00534,-22.88806 13.93222,-34.68387 z"
       id="path4810"
       style="fill:#ffffff;fill-opacity:1;fill-rule:evenodd;stroke:#000000;stroke-width:1.18917;stroke-linecap:butt;stroke-linejoin:miter;stroke-opacity:1" />
    <path
       d="m 333.47482,198.32881 c 5.33087,-0.58946 4.07047,-1.59451 6.99736,-1.09063 -0.72255,10.99584 -11.70345,31.47585 -17.6971,39.3533 -6.5247,8.5742 -12.60122,12.33364 -20.27358,17.66858 -26.06757,18.13171 -35.5694,20.09701 -41.24931,22.36788 -23.79941,9.51542 -30.56859,12.12584 -67.63878,24.86423 28.28956,-11.72926 50.07749,-21.47149 75.92232,-32.96985 5.11084,-2.27359 9.98943,-5.31592 25.12635,-15.10162 7.12231,-4.60559 20.07936,-14.57872 26.53886,-24.13623 9.04821,-13.39031 9.65667,-19.47632 12.27388,-30.95566 z"
       id="path4812"
       style="fill:#ffffff;fill-opacity:1;fill-rule:evenodd;stroke:#000000;stroke-width:1.18917;stroke-linecap:butt;stroke-linejoin:miter;stroke-opacity:1" />
    <path
       d="m 244.07119,217.4547 c 5.45989,-0.35448 5.60658,-1.53746 8.59593,-1.55239 -8.04994,11.65863 -8.36639,15.18446 -19.00775,23.68804 -19.33098,15.44795 -36.21725,19.90821 -49.29789,20.76794 -23.30638,1.5334 -43.072,1.51437 -77.41769,-5.91895 31.04802,4.15739 40.10165,5.07824 73.63923,3.24333 13.52205,-0.74021 28.84097,-6.76373 36.70213,-12.64874 15.17495,-11.35846 20.49902,-17.20952 26.78604,-27.57923 z"
       id="path4814"
       style="fill:#ffffff;fill-opacity:1;fill-rule:evenodd;stroke:#000000;stroke-width:1.18917;stroke-linecap:butt;stroke-linejoin:miter;stroke-opacity:1" />
    <path
       d="m 463.70402,199.35287 c 6.18515,1.676 3.90206,1.31608 6.04526,0.58266 0.15892,-8.58642 -2.90651,-13.07384 -6.7162,-21.8151 -5.46124,-12.53194 -15.13014,-21.40359 -26.75753,-28.68751 -11.86099,-7.43197 -24.45812,-14.76343 -45.332,-25.64381 16.02653,10.53948 35.26109,21.14144 49.95118,32.87206 9.73002,7.77015 12.92173,13.13768 15.21978,17.32359 6.38345,11.62467 5.91759,17.0642 7.58951,25.36811 z"
       id="path4816"
       style="fill:#ffffff;fill-opacity:1;fill-rule:evenodd;stroke:#000000;stroke-width:1.18917;stroke-linecap:butt;stroke-linejoin:miter;stroke-opacity:1" />
    <path
       d="m 397.43565,182.81294 c 6.18516,0.36943 3.38459,1.84169 5.52915,1.10691 0.15755,-8.58642 -2.64981,-13.59675 -6.4595,-22.338 -5.45989,-12.53058 -15.13014,-21.40358 -26.75617,-28.68885 -11.861,-7.43061 -24.45948,-14.76343 -45.33202,-25.64246 16.02789,10.53949 35.25975,21.14145 49.9512,32.87341 9.73,7.76879 12.92037,13.13497 15.21976,17.32088 6.38346,11.62603 6.17566,17.06419 7.84758,25.36811 z"
       id="path4820"
       style="fill:#ffffff;fill-opacity:1;fill-rule:evenodd;stroke:#000000;stroke-width:1.18917;stroke-linecap:butt;stroke-linejoin:miter;stroke-opacity:1" />
    <path
       d="m 339.21858,177.933 c 5.58483,-0.58538 2.22877,-0.0707 6.30331,-0.0869 -1.17075,-8.50629 -4.48063,-9.97583 -9.59419,-18.00947 -7.3301,-11.51603 -18.25259,-18.75513 -30.86194,-24.11723 -12.8647,-5.46803 -26.43972,-10.72555 -48.73969,-18.17925 17.45941,7.88152 38.09562,15.32164 54.41824,24.59258 10.81248,6.14034 14.79331,10.93744 17.71068,14.7091 8.1002,10.47701 7.82855,13.15398 10.76359,21.0912 z"
       id="path4822"
       style="fill:#ffffff;fill-opacity:1;fill-rule:evenodd;stroke:#000000;stroke-width:1.18917;stroke-linecap:butt;stroke-linejoin:miter;stroke-opacity:1" />
    <path
       d="m 284.82749,187.55436 c 5.15294,-3.36016 4.00392,-0.28387 5.48163,-1.46548 -2.25188,-6.7814 -4.99947,-9.35923 -10.40775,-15.14237 -7.75386,-8.28898 -23.54135,-14.50673 -34.85229,-15.90294 -11.62331,-1.43424 -28.13472,-4.6898 -46.04098,-9.3375 15.58785,7.50259 38.93362,10.32354 53.33441,13.74616 2.26681,0.5392 13.83851,5.41371 20.20838,10.72826 8.88658,7.4116 8.66656,11.33267 12.2766,17.37387 z"
       id="path4824"
       style="fill:#ffffff;fill-opacity:1;fill-rule:evenodd;stroke:#000000;stroke-width:1.18917;stroke-linecap:butt;stroke-linejoin:miter;stroke-opacity:1" />
    <path
       d="m 210.32989,207.19229 c 5.19097,-1.44646 3.04913,0.36399 4.84736,-0.25262 0.1331,-7.20514 -1.78738,-8.26181 -4.98452,-15.59735 -4.58115,-10.51503 -12.69629,-17.96194 -22.45346,-24.07377 -9.95275,-6.2354 -23.11216,-10.03559 -35.19182,-18.38162 10.60059,11.45898 26.73986,14.60453 39.06807,24.44726 8.16538,6.52063 10.84372,11.023 12.77098,14.53661 5.35803,9.75582 4.5404,12.35267 5.94339,19.32149 z"
       id="path4826"
       style="fill:#ffffff;fill-opacity:1;fill-rule:evenodd;stroke:#000000;stroke-width:1.18917;stroke-linecap:butt;stroke-linejoin:miter;stroke-opacity:1" />
  </g>
</svg>
