<?xml version="1.0" encoding="UTF-8" standalone="no"?>
<svg
   id="Layer_1"
   data-name="Layer 1"
   viewBox="0 0 640.00002 480.00001"
   version="1.1"
   sodipodi:docname="oilers.svg"
   width="640"
   height="480"
   inkscape:version="1.1.2 (0a00cf5339, 2022-02-04)"
   xmlns:inkscape="http://www.inkscape.org/namespaces/inkscape"
   xmlns:sodipodi="http://sodipodi.sourceforge.net/DTD/sodipodi-0.dtd"
   xmlns="http://www.w3.org/2000/svg"
   xmlns:svg="http://www.w3.org/2000/svg">
  <sodipodi:namedview
     id="namedview110"
     pagecolor="#ffffff"
     bordercolor="#666666"
     borderopacity="1.0"
     inkscape:pageshadow="2"
     inkscape:pageopacity="0.0"
     inkscape:pagecheckerboard="0"
     showgrid="false"
     width="640px"
     inkscape:zoom="2.0342444"
     inkscape:cx="306.99359"
     inkscape:cy="212.85545"
     inkscape:window-width="1844"
     inkscape:window-height="1011"
     inkscape:window-x="0"
     inkscape:window-y="32"
     inkscape:window-maximized="1"
     inkscape:current-layer="Layer_1" />
  <defs
     id="defs95">
    <style
       id="style93">
      .cls-1 {
        fill: none;
        stroke: #000;
        stroke-miterlimit: 10;
      }
    </style>
  </defs>
  <path
     class="cls-1"
     d="m 527.07346,214.92658 c -0.66686,-6.52901 -1.58185,-13.01149 -2.83802,-19.46295 -2.31075,-11.9104 -5.583,-23.55716 -9.8633,-34.92476 -6.97875,-18.51695 -16.31476,-35.77772 -28.00805,-51.73579 -14.50028,-19.788628 -31.8386,-36.661688 -52.03044,-50.588168 -21.7737,-15.012065 -45.50144,-25.697304 -71.18324,-32.009194 -7.70764,-1.892017 -15.49282,-3.396325 -23.37105,-4.357841 -4.2803,-0.511775 -8.5606,-0.914992 -12.8564,-1.349225 -0.77542,-0.07754 -1.56634,-0.1861 -2.45032,0.01551 0.15508,0.806433 0.63584,1.318208 0.99253,1.876507 4.54394,7.180357 9.08788,14.360714 13.63183,21.525562 3.70649,5.862149 7.4595,11.693281 11.08845,17.601951 4.24928,6.90121 7.52154,14.23665 9.52212,22.11488 1.6749,6.57553 2.49684,13.244106 1.76795,20.052268 -0.77542,7.33544 -3.03964,14.15911 -6.99426,20.36244 -6.83917,10.74727 -16.46985,17.95864 -28.51982,21.92878 -7.94026,2.62091 -16.03561,3.11717 -24.2085,1.36473 -10.74728,-2.31074 -19.95922,-7.444 -27.52729,-15.43079 -8.71568,-9.19644 -13.21309,-20.17634 -13.36818,-32.862152 -0.0775,-7.056286 1.31821,-13.895456 3.55141,-20.579546 2.29523,-6.85468 5.55198,-13.22861 9.42906,-19.30787 7.76968,-12.236075 15.52384,-24.472147 23.27801,-36.723728 0.35669,-0.573808 0.69787,-1.163124 1.19414,-1.985066 -0.99254,0 -1.69041,-0.04652 -2.37278,0 -3.9236,0.356692 -7.84721,0.666858 -11.7398,1.147617 -6.38943,0.790924 -12.71683,1.876508 -19.01321,3.241241 -12.79438,2.760482 -25.21655,6.668581 -37.29754,11.708789 -18.14474,7.583573 -34.95577,17.446867 -50.41758,29.589897 -17.83458,14.00402 -33.11028,30.396316 -45.82711,49.161398 -13.2131,19.49397 -22.99885,40.60081 -29.31075,63.305 -3.039633,10.90236 -5.195293,21.99081 -6.466973,33.23435 -0.72889,6.40494 -1.22515,12.80988 -1.36473,19.24584 -0.12406,5.87766 -0.10856,11.73981 0.24814,17.61746 0.29465,4.99369 0.69787,9.97186 1.3182,14.93453 0.89948,7.31993 2.17117,14.57783 3.81505,21.75818 3.365313,14.65537 8.188403,28.81448 14.515803,42.46181 8.59161,18.54796 19.58702,35.52958 32.97071,50.97588 10.88684,12.56175 23.06088,23.74325 36.5066,33.5135 18.39288,13.35267 38.36761,23.58817 59.97071,30.67548 10.82482,3.5514 21.85124,6.21884 33.09478,7.98679 4.43538,0.69787 8.91729,1.14761 13.38369,1.67489 4.77656,0.5583 9.58415,0.82195 14.39173,0.94601 10.56117,0.29466 21.10684,-0.12406 31.60597,-1.36473 6.07927,-0.71338 12.12752,-1.62837 18.12924,-2.85353 11.64676,-2.35727 23.02987,-5.64503 34.13384,-9.89432 23.88282,-9.11889 45.45491,-22.06835 64.76278,-38.80184 19.3544,-16.78001 35.26594,-36.38254 47.70362,-58.79208 10.62321,-19.13728 18.17577,-39.43768 22.61115,-60.87019 1.31821,-6.35842 2.34176,-12.76336 3.08616,-19.23033 0.66685,-5.70706 1.1321,-11.44515 1.3182,-17.18323 0.31017,-9.94084 0.0465,-19.86617 -0.97702,-29.76048 z m -18.78059,33.01724 c -0.27915,5.67604 -0.88397,11.32108 -1.6904,16.96611 -1.90753,13.46123 -5.1953,26.58128 -9.83229,39.36014 -5.07122,13.973 -11.66226,27.1861 -19.7421,39.67031 -8.39001,12.96496 -18.16025,24.78231 -29.31074,35.45204 -12.01896,11.50718 -25.27858,21.35497 -39.77887,29.52786 -12.2826,6.91671 -25.17002,12.45319 -38.64676,16.60942 -9.3205,2.86904 -18.8116,5.0247 -28.45778,6.48248 -5.24182,0.79093 -10.53016,1.33372 -15.83401,1.70592 -1.90752,0.13957 -3.83055,0.23262 -5.75359,0.31016 v -6.28087 c 40.69386,-2.07812 77.34004,-17.44687 104.02988,-43.82654 9.61516,-9.50661 17.77255,-20.31591 24.41011,-32.14877 1.3027,-2.03159 2.57438,-4.07869 3.81505,-6.17231 5.13326,-8.66916 9.50661,-17.71051 13.36818,-27 2.62091,-6.31189 4.54394,-12.80988 5.90867,-19.50948 1.19414,-5.87766 1.93854,-11.81735 2.32625,-17.81907 0.35669,-5.36589 0.32568,-10.74728 0.21712,-16.11316 -0.0775,-3.33429 -1.07008,-6.42045 -3.42734,-8.88627 -1.25618,-1.3027 -2.55888,-2.57438 -3.95463,-3.70649 -6.69959,-5.42792 -13.43021,-10.80931 -20.16082,-16.20621 -0.58932,-0.46525 -1.16313,-0.946 -1.72143,-1.45778 -1.51982,-1.36473 -2.26421,-3.03963 -2.2332,-5.13326 0.0775,-4.68351 0.0155,-9.36703 0.0155,-14.05054 0,-0.49627 0,-1.00805 0.0465,-1.50431 0.34118,-2.52786 1.5043,-4.51293 3.90809,-5.55198 4.15624,-1.79897 9.07238,0.62033 9.72373,5.42791 0.12406,0.9305 0.15508,1.861 0.15508,2.80701 0.0155,2.80701 0,5.62952 0,8.43653 0,0.54279 -0.12407,1.13211 0.35669,1.70592 0.34119,0.031 0.77542,0.10856 1.19414,0.12406 7.64561,0.1706 15.38427,0.0776 17.27628,-0.21711 0.0155,-0.7444 0.0465,-1.42677 0.0465,-2.10914 0,-10.18897 0,-20.36243 0,-30.55141 0,-0.99253 0,-2.00057 -0.0931,-2.9931 -0.13958,-1.24067 -0.32568,-2.48134 -0.62034,-3.69099 -0.946,-3.75301 -3.31878,-6.21884 -6.96324,-7.44399 -2.26421,-0.75991 -4.57495,-1.22516 -6.97874,-1.22516 -7.24239,0 -14.50029,0 -21.74268,0 -0.80644,0 -1.62838,0 -2.43481,0.093 -5.98622,0.69787 -8.79322,4.2803 -9.90982,8.12636 -0.44974,1.56634 -0.69788,3.1637 -0.69788,4.80759 0,3.81504 0,7.61458 0,11.42963 0,10.99541 0,21.99082 0,32.98622 0,1.4888 0.15509,2.99311 0.32568,4.4664 0.21711,1.81448 1.14761,3.22573 2.6054,4.37335 7.69213,6.09477 15.33773,12.23607 22.98334,18.36186 0.48076,0.38771 0.96152,0.79093 1.45778,1.17863 0.99254,0.77542 1.56635,1.75245 1.59736,3.03964 0,0.7444 0.0775,1.50431 0.0775,2.24871 0,4.80758 0,9.61516 0,14.43825 0,0.3722 0,0.7444 0,1.13211 0,2.4193 -1.22515,3.97013 -3.39632,4.90063 -1.78346,0.75991 -3.64446,0.86847 -5.50546,0.46525 -3.11717,-0.68237 -4.94715,-2.85353 -5.19529,-6.04825 -0.0465,-0.5583 -0.031,-1.1166 -0.031,-1.69041 0,-6.49799 0,-12.99598 0,-19.49397 0,-0.66685 0.10855,-1.36473 -0.1861,-2.01608 -0.23263,-0.062 -0.40322,-0.17059 -0.57381,-0.17059 -4.86962,0 -9.73923,0 -14.62436,0 -0.17059,0 -0.34118,0.10856 -0.54279,0.15508 -0.062,0.1861 -0.1861,0.35669 -0.1861,0.52729 0,39.56174 0,79.139 0,118.70075 -0.58932,0.60483 -1.19414,1.22516 -1.79897,1.82998 -1.41125,1.39575 -2.86904,2.76049 -4.34233,4.0942 0.44974,-0.80643 0.79093,-1.65939 1.00804,-2.58989 0.21712,-0.97702 0.40322,-1.95405 0.5428,-2.94658 0.49626,-3.722 0.63584,-7.47502 0.63584,-11.22803 0.0465,-25.74383 0.0155,-51.48766 0.0155,-77.24699 0,-0.5583 -0.0465,-1.10109 -0.062,-1.51982 -0.15508,-0.17059 -0.1861,-0.23262 -0.23262,-0.26364 -0.17059,-0.0775 -0.32568,-0.1861 -0.51178,-0.21712 -3.33429,-0.58931 -5.00919,-2.85353 -5.80011,-5.89316 -0.31017,-1.19414 -0.38771,-2.46583 -0.38771,-3.70649 -0.031,-6.49799 -0.0155,-12.99598 -0.0155,-19.49397 0,-3.38082 0,-6.74613 0,-10.12694 -0.0155,-3.1637 -1.22516,-5.83113 -3.50488,-8.0023 -0.54279,-0.51178 -1.16313,-0.94601 -1.73694,-1.41126 -0.27915,-0.23262 -0.52728,-0.48076 -0.85295,-0.77541 0.82194,-1.00805 1.73693,-1.76795 2.66743,-2.48134 1.93854,-1.47329 3.03963,-3.42734 3.52039,-5.7846 0.48076,-2.34176 0.60482,-4.69903 0.54279,-7.08731 -0.062,-2.37278 -0.12407,-4.74555 -0.12407,-7.11832 -0.0155,-7.444 0,-14.87249 0,-22.31649 0,-2.18668 -0.062,-4.37335 -0.51177,-6.52901 -1.05457,-5.16427 -4.00115,-8.63814 -9.1189,-10.14245 -2.2332,-0.65135 -4.48191,-1.08558 -6.82366,-1.07007 -5.50546,0.031 -10.99541,0 -16.50087,0 -7.87823,0 -15.74095,0 -23.61918,0 -0.66686,0 -1.36474,-0.12407 -2.07812,0.21712 -0.0465,0.43423 -0.12406,0.85295 -0.12406,1.28719 0,8.7467 0,17.49339 0,26.24009 0,0.41873 0.10855,0.83745 0.17059,1.17863 0.23262,0.10856 0.34118,0.1861 0.44974,0.21712 3.84606,1.27168 5.87766,4.03217 6.49799,7.92476 0.12407,0.72889 0.12407,1.4888 0.12407,2.24871 0,20.93624 0,41.87249 0,62.80873 0,0.86847 -0.062,1.75244 -0.1861,2.62091 -0.51178,3.70649 -3.56692,6.60655 -6.56003,7.13383 -0.40321,0.0775 -0.79092,0.27915 -1.25617,0.44974 0,0.88398 0,1.70592 0,2.51235 0,36.42907 0,72.85813 0,109.30271 0,2.62091 -0.0465,5.24182 -0.43424,7.84721 -0.58931,3.97014 -1.56634,7.76968 -3.97013,11.05744 -3.08616,0.71339 -6.20333,1.33372 -9.35152,1.87651 1.36473,-0.65135 2.66743,-1.44227 3.86157,-2.45031 3.11718,-2.57439 5.04021,-5.84664 5.583,-9.8633 0.20161,-1.47329 0.26364,-2.99311 0.26364,-4.48191 0,-47.85871 0,-95.71741 0,-143.59162 0,-0.49627 0.0155,-1.00805 0,-1.50431 -0.0155,-0.35669 -0.10856,-0.71339 -0.20161,-1.16313 -1.38024,0 -2.68294,-0.031 -3.98564,-0.031 -1.25617,0 -2.49684,0 -3.75301,0 -1.31821,0 -2.62091,0 -3.93912,0 -1.28719,0.0155 -2.58989,-0.0931 -3.89259,0.0931 -0.29466,0.77541 -0.1861,1.45778 -0.1861,2.14015 0,5.56749 0,11.11947 0,16.68696 0,1.25617 0,2.49684 -0.031,3.75301 -0.062,1.56635 -0.21711,3.11718 -0.72889,4.60598 -0.51177,1.51981 -1.55083,2.57438 -3.10166,2.99311 -1.76795,0.48075 -3.58243,0.5583 -5.36588,0.0775 -1.55084,-0.41873 -2.72947,-1.31821 -3.22574,-2.85354 -0.35669,-1.1166 -0.60482,-2.29523 -0.72889,-3.45835 -0.13957,-1.42677 -0.12407,-2.86904 -0.13957,-4.31132 0,-8.0023 0,-15.98909 -0.0155,-23.99138 0,-0.3722 -0.031,-0.75991 0.0155,-1.1166 0.031,-0.3567 0.13957,-0.69788 0.24813,-1.14762 h 2.12464 c 3.75302,0 7.49052,0 11.24354,0 0.54279,0 1.08558,-0.0775 1.69041,-0.10856 0.0465,-0.40322 0.12406,-0.71338 0.12406,-1.00804 0,-6.31189 0,-12.62378 0,-18.93567 0,-0.34118 -0.13957,-0.69788 -0.23262,-1.13211 -0.75991,0 -1.44228,0 -2.12464,0 -3.69098,0 -7.36646,0 -11.05744,0 -0.60483,0 -1.24067,0.13958 -1.95405,-0.32567 -0.0155,-0.58932 -0.0775,-1.27169 -0.0775,-1.93855 0,-4.31131 0,-8.62263 0,-12.93394 0,-0.9305 -0.0155,-1.89202 0.12406,-2.80701 0.1706,-1.10109 0.38771,-2.21769 0.75991,-3.27226 0.68237,-1.89201 2.09363,-3.05514 4.03217,-3.59793 1.16312,-0.32568 2.34176,-0.43423 3.52039,-0.34118 2.17117,0.17059 3.78403,1.19414 4.68351,3.22573 0.24814,0.57381 0.49627,1.16312 0.58932,1.76795 0.1861,1.22516 0.3722,2.48133 0.40322,3.722 0.062,2.80701 0.0155,5.62952 0.031,8.43653 0,0.48076 0.093,0.96152 0.13958,1.4888 1.78346,0.23262 3.45836,0.0931 5.13326,0.10856 1.62837,0.031 3.25675,0.031 4.86961,0 1.65939,-0.031 3.3498,0.15508 5.00919,-0.13958 0.29466,-0.82194 0.20161,-1.56634 0.20161,-2.31074 0,-14.19012 0,-28.36473 0,-42.55486 0,-0.43423 0.0155,-0.88397 -0.0155,-1.3182 -0.031,-0.3567 -0.13957,-0.69788 -0.23262,-1.1166 -0.83745,0 -1.58185,-0.031 -2.32625,-0.031 -18.68754,0 -37.35957,0 -56.04711,0 -0.43423,0 -0.88397,-0.031 -1.3182,0 -0.35669,0.031 -0.69788,0.13957 -1.02355,0.20161 -0.23263,2.10913 -0.1861,27.13958 0.062,28.58185 0.60483,0.34118 1.31821,0.20161 1.98507,0.26364 1.8765,0.15508 3.70649,0.54279 5.4124,1.39575 2.26422,1.14762 3.722,2.93108 4.12522,5.45893 0.17059,1.03906 0.23262,2.10914 0.23262,3.1637 0,17.18323 0,34.36646 0,51.54969 0,4.06318 0,8.12637 0,12.18955 0,1.82998 -0.2016,3.62895 -0.86846,5.33486 -0.71339,1.82999 -1.861,3.25675 -3.9081,3.69099 -0.17059,0.031 -0.34118,0.15508 -0.7444,0.35669 v 2.46582 c 0,39.04998 0,78.09995 0,117.14992 0,1.19415 0.031,2.37278 -0.062,3.56692 -0.32568,4.66801 -2.15566,8.43653 -6.20334,10.90236 -2.68294,-0.29466 -5.35037,-0.65135 -7.97128,-1.07008 0.0775,0 0.15509,0 0.21712,0 4.26479,-0.41872 8.59161,-3.38081 9.80126,-8.73119 0.35669,-1.55083 0.35669,-3.10166 0.35669,-4.6525 0,-49.17691 0,-98.33832 0,-147.51523 0,-0.49627 0.0155,-1.00804 0,-1.50431 -0.031,-0.35669 -0.13957,-0.69787 -0.21711,-1.13211 -2.31074,-0.15508 -4.55945,-0.0931 -6.79265,-0.062 -2.21769,0.031 -4.4664,-0.1861 -6.77714,0.17059 -0.031,0.71339 -0.0931,1.31821 -0.0931,1.93854 0,2.80701 0,5.62953 0,8.43654 0,3.87708 0,7.75416 -0.0155,11.61573 0,1.62838 -0.13957,3.24125 -0.62033,4.80759 -0.51178,1.62837 -1.59736,2.66743 -3.22573,3.10166 -1.78346,0.46525 -3.56692,0.52729 -5.3814,0.0775 -1.72142,-0.41872 -2.91556,-1.44227 -3.42734,-3.13268 -0.29465,-0.94601 -0.46525,-1.95405 -0.52728,-2.93107 -0.12407,-2.12464 -0.1861,-4.24929 -0.20161,-6.37393 0,-20.05227 0,-40.10454 0,-60.17232 0,-0.62033 0.0155,-1.25617 0.062,-1.8765 0.17059,-2.31075 1.22515,-4.15624 2.9776,-5.62953 1.56634,-1.31821 3.3653,-2.12464 5.36588,-2.49684 0.35669,-0.062 0.71338,-0.13957 1.1166,-0.21712 0.0465,-0.44974 0.12406,-0.80643 0.12406,-1.17863 0.0155,-1.05456 0,-2.12464 0,-3.17921 0,-7.49052 0,-14.99655 0,-22.48707 0,-0.66686 0.13958,-1.36474 -0.2016,-1.93855 -0.20161,-0.0775 -0.31017,-0.13957 -0.43424,-0.15508 -0.5583,-0.031 -1.1166,-0.0465 -1.69041,-0.0465 -10.04939,0.0155 -20.1143,0.0465 -30.1637,0.062 -0.062,0 -0.12406,0 -0.1861,0.0465 -0.0465,0.031 -0.0931,0.0931 -0.26364,0.27915 -0.0155,0.26365 -0.0931,0.68237 -0.0931,1.1011 0,8.74669 0,17.49339 0,26.24009 0,0.41872 0.0931,0.83745 0.15508,1.28719 0.44975,0.093 0.80644,0.15508 1.16313,0.24813 1.82998,0.49627 3.24124,1.58185 4.21827,3.19472 0.7599,1.25618 1.19414,2.6054 1.28719,4.06318 0.062,0.9305 0.062,1.87651 0.062,2.80701 0,20.81218 0,41.60885 0,62.42103 0,0.68236 0.031,1.38024 -0.031,2.06261 -0.062,0.62033 -0.13957,1.25617 -0.34118,1.82998 -1.10109,3.25675 -3.31878,5.35037 -6.68409,6.18782 -0.35669,0.0931 -0.71338,0.17059 -1.31821,0.32568 v 2.55887 c 0,34.36646 0,68.73292 0,103.09938 0,0.7444 0,1.50431 0,2.24871 -0.0775,3.86157 -1.82998,6.65307 -5.33486,8.32797 -0.41873,0.20161 -0.94601,0.26364 -1.33372,0.82194 -1.92303,-1.03906 -3.81505,-2.10913 -5.69156,-3.24124 2.15566,0.44974 4.31132,-0.21712 5.90868,-1.89202 1.24066,-1.3027 2.00057,-2.86904 2.26421,-4.63699 0.17059,-1.16312 0.27915,-2.35726 0.27915,-3.5359 0,-33.91671 0,-67.84894 0,-101.76566 0,-0.62033 -0.031,-1.22515 -0.0465,-1.8765 -0.34119,-0.15509 -0.62034,-0.29466 -0.91499,-0.38771 -1.41126,-0.3722 -2.45032,-1.25618 -3.19472,-2.45032 -0.54279,-0.89948 -0.97702,-1.87651 -1.34922,-2.86904 -0.46525,-1.24067 -0.46525,-2.57438 -0.46525,-3.89259 0,-21.37048 0,-42.72545 0,-64.09593 0,-0.62033 0,-1.25617 0.0465,-1.87651 0.46525,-4.2958 3.52039,-7.16484 6.46697,-7.56806 0.1706,-0.0155 0.32568,-0.15508 0.57381,-0.27915 0.031,-0.60483 0.062,-1.20965 0.0775,-1.82998 0,-3.87709 0,-7.75417 0,-11.61574 0,-4.49742 0,-8.99483 0,-13.49225 0,-0.60482 0.1861,-1.25617 -0.3877,-1.90752 -9.64619,0 -19.38542,0 -29.12465,0 -0.29466,0 -0.58931,0.0775 -0.99253,0.13957 -0.031,0.49627 -0.093,0.91499 -0.093,1.33372 0,8.7467 0,17.49339 0,26.24009 0,0.41873 0.10856,0.83745 0.15508,1.25618 0.46525,0.0931 0.82194,0.15508 1.17864,0.23262 2.29523,0.51178 3.9236,1.84549 4.91614,3.95463 0.51177,1.08558 0.82194,2.23319 0.86846,3.42734 0.031,0.9305 0.0465,1.8765 0.0465,2.807 0,20.73464 0,41.48479 0,62.21942 0,0.62034 0,1.25618 0,1.87651 -0.031,2.27973 -0.88398,4.26479 -2.34176,5.97071 -0.99253,1.16312 -2.21769,2.00057 -3.73751,2.35726 -0.35669,0.0775 -0.69787,0.23263 -1.13211,0.38771 0,0.83745 0,1.64389 0,2.45032 0,23.24698 0,46.47846 0,69.72545 0,0.86847 0.031,1.75244 0,2.62091 -0.13957,2.9931 -0.91499,5.7846 -2.57438,8.29695 -1.51981,2.29524 -3.62895,3.76853 -6.3274,4.29581 -0.57381,0.10856 -1.16312,0.17059 -1.79896,0.21712 -1.70592,-1.87651 -3.3498,-3.79954 -4.94716,-5.7691 0.21712,0.10856 0.40322,0.23262 0.63584,0.32567 3.21023,1.42677 6.23435,0.57381 8.23492,-2.27972 0.915,-1.3027 1.4733,-2.74498 1.82999,-4.2803 0.5583,-2.32625 0.66686,-4.68352 0.66686,-7.0718 0,-26.86043 0,-53.72085 0,-80.58128 0,-26.48823 0,-52.97645 0,-79.46468 0,-0.9305 0.0155,-1.87651 0,-2.80701 -0.062,-1.87651 -0.21712,-3.73751 -0.65135,-5.56749 -1.36474,-5.86215 -4.93165,-9.6772 -10.65423,-11.50718 -2.15566,-0.68237 -4.37335,-1.08558 -6.63756,-1.10109 -5.87766,-0.062 -11.73981,-0.17059 -17.61747,0 -6.48248,0.20161 -11.42963,3.17921 -14.67088,8.87076 -1.08558,1.90753 -1.86099,3.95463 -2.4348,6.06376 -0.99254,3.64446 -1.20965,7.38196 -1.20965,11.13498 0,23.49512 0,46.97473 0,70.46985 0,1.44228 0.0465,2.86904 0.17059,4.31132 0.60482,6.59104 1.51982,13.13555 2.86904,19.63354 1.87651,9.07237 4.52843,17.91212 8.01781,26.48823 5.4124,13.33716 12.65479,25.61976 21.52556,36.94084 0.94601,1.20965 1.90752,2.38828 2.88455,3.56692 0.0775,0.093 0.15508,0.1861 0.23262,0.27915 3.08616,4.35784 6.38943,8.52958 9.90983,12.4842 0,0 -0.031,0 -0.0465,0 0.43422,0.52729 0.71337,0.91499 1.03905,1.25618 1.05457,1.1166 2.12464,2.20218 3.22573,3.27225 27.32568,28.1011 66.14303,44.4934 111.90811,44.4934 2.74497,0 5.45893,-0.062 8.15738,-0.1861 v 6.24986 c -5.62952,0.1861 -11.24354,0.13957 -16.87306,-0.12407 -5.86215,-0.27915 -11.70879,-0.88397 -17.52442,-1.69041 -11.60023,-1.62837 -22.93681,-4.2958 -34.05629,-7.94026 -12.8564,-4.23377 -25.139,-9.75474 -36.84779,-16.53188 -16.26802,-9.41351 -30.90788,-20.93619 -43.90386,-34.537 -14.888,-15.57036 -26.92246,-33.12579 -36.10339,-52.61976 -6.57553,-13.97301 -11.38312,-28.51982 -14.53131,-43.62493 -1.22515,-5.87766 -2.12464,-11.78634 -2.807,-17.75704 -0.9305,-8.20391 -1.36474,-16.43883 -1.25618,-24.68926 0.0775,-5.42792 0.35669,-10.85583 0.85296,-16.28375 0.72889,-7.78518 1.90752,-15.49282 3.5359,-23.13843 2.66743,-12.42217 6.5135,-24.48765 11.5537,-36.16542 10.43711,-24.16198 25.09248,-45.43941 43.99714,-63.754752 20.53302,-19.897176 44.26077,-34.692126 71.21425,-44.276274 4.34233,-1.550833 8.79322,-2.822516 13.19758,-4.202758 0.57381,-0.1861 1.14762,-0.418725 1.81448,-0.325675 -0.031,0.775417 -0.54279,1.194142 -0.89948,1.690408 -2.83803,4.047674 -5.52097,8.172893 -7.89374,12.515223 -4.06319,7.45951 -7.10282,15.2757 -8.65365,23.6502 -1.16313,6.29638 -1.62838,12.623776 -1.05457,19.028718 1.56634,17.24527 8.70017,31.90064 20.75015,44.19874 8.32797,8.51408 18.19127,14.56233 29.62091,18.02068 4.43538,1.34923 8.96381,2.21769 13.58529,2.58989 16.90408,1.34923 32.17979,-3.10166 45.7961,-13.10453 13.55428,-9.95635 22.64216,-23.09191 27.24814,-39.29811 2.00057,-7.02528 2.76048,-14.22114 2.37277,-21.510058 -0.57381,-10.76278 -3.42734,-20.90523 -8.25043,-30.52039 -2.69845,-5.36588 -5.89317,-10.437106 -9.33602,-15.353246 -0.3877,-0.5583 -0.7444,-1.1166 -1.14761,-1.705916 0.57381,-0.449742 1.05456,-0.124067 1.47329,0 3.76852,1.132108 7.55256,2.217691 11.27456,3.473865 21.12234,7.195867 40.46123,17.726017 58.00115,31.512927 19.41643,15.260196 35.45204,33.529008 48.06031,54.775418 9.39805,15.83401 16.42332,32.67605 21.09133,50.47961 1.87651,7.13384 3.31878,14.34521 4.35784,21.66514 1.03906,7.30442 1.65939,14.63986 1.92303,22.02183 0.21712,5.81562 0.0931,11.61574 -0.2016,17.43136 z M 381.07804,221.37805 h 0.0155 c 0,-2.12464 0,-4.24929 0,-6.37393 0,-1.20965 0.24814,-2.35726 0.80644,-3.42734 1.10109,-2.12464 2.86904,-3.30327 5.24181,-3.3498 2.37278,-0.0465 4.18725,1.07008 5.36588,3.14819 0.72889,1.27169 1.00804,2.68294 1.07008,4.12522 0.062,1.50431 0.0775,2.99311 0.062,4.49742 0,2.18667 -0.031,4.37334 -0.0931,6.56002 -0.031,0.9305 -0.0931,1.87651 -0.31017,2.77599 -0.91499,3.67547 -4.86961,5.70707 -8.39,4.32682 -2.24871,-0.88397 -3.45836,-2.6209 -3.69098,-4.97817 -0.12407,-1.3027 -0.062,-2.62091 -0.0775,-3.92361 0,-1.1166 0,-2.24871 0,-3.36531 z m 0.031,32.53647 c 1.00804,-2.27972 2.7915,-3.48937 5.24182,-3.65996 2.37277,-0.17059 4.24928,0.79092 5.56749,2.7915 0.69787,1.05456 1.08558,2.2332 1.38024,3.45835 0.38771,1.65939 0.35669,3.3498 0.35669,5.04021 0,42.80299 0,85.62149 0,128.42448 0,2.31074 0.031,4.62148 -0.0155,6.93222 -0.062,2.74498 -0.26364,5.48995 -1.00804,8.15738 -0.0155,0.062 0,0.13958 0,0.20161 -2.43481,1.39575 -4.93165,2.72947 -7.45951,4.00115 0.65135,-0.68236 1.24067,-1.42676 1.72143,-2.31074 0.85296,-1.55083 1.41126,-3.19472 1.78346,-4.91614 0.5583,-2.63642 0.7444,-5.30385 0.7444,-8.0023 0,-19.05974 0,-38.11947 0,-57.17921 0,-14.43825 0,-28.87651 0,-43.29926 0,-0.7444 0.10855,-1.4888 -0.15509,-2.2332 -0.69787,-0.17059 -1.36473,-0.31016 -2.01608,-0.49626 -4.17174,-1.19414 -6.85468,-4.59047 -7.04078,-8.90178 -0.0155,-0.43424 0,-0.86847 0,-1.31821 0,-6.68409 0,-13.36818 0,-20.05227 0,-0.62034 -0.0155,-1.25618 0.031,-1.87651 0.12407,-1.61287 0.26365,-3.22573 0.94601,-4.74555 z m -198.95636,28.1011 c 0,1.25617 -0.031,2.49684 -0.35669,3.722 -1.14762,4.2958 -5.36588,6.83917 -9.94084,5.56749 -3.00862,-0.83745 -4.6525,-3.02413 -5.13326,-6.06376 -0.13957,-0.91499 -0.12407,-1.861 -0.12407,-2.80701 0,-10.85583 0,-21.72717 0,-32.583 0,-10.91786 0,-21.85124 0,-32.7691 0,-0.80643 0,-1.62838 0.0775,-2.43481 0.3722,-3.76852 3.27226,-6.59104 6.99426,-6.87019 3.92361,-0.27915 7.21137,2.00058 8.12637,5.73808 0.23262,0.96152 0.32567,1.96956 0.34118,2.96209 0.031,4.12522 0.0155,8.23493 0.0155,12.36014 0,17.72602 0,35.46755 0,53.19357 z"
     id="path105"
     style="stroke-width:1.55083;fill:#000000;stroke:none" />
</svg>
